<?xml version="1.0" encoding="UTF-8" standalone="no"?>
<svg width="248px" height="40px" viewBox="0 0 248 40" version="1.1" xmlns="http://www.w3.org/2000/svg" xmlns:xlink="http://www.w3.org/1999/xlink">
    <!-- Generator: Sketch 3.8.3 (29802) - http://www.bohemiancoding.com/sketch -->
    <title>LOGO2</title>
    <desc>Created with Sketch.</desc>
    <defs></defs>
    <g id="Page-1" stroke="none" stroke-width="1" fill="none" fill-rule="evenodd">
        <g id="Logo" transform="translate(-450.000000, -312.000000)">
            <g id="LOGO2" transform="translate(450.000000, 312.000000)">
                <path d="M155.675736,16.0164255 C154.848217,16.0164255 154.236313,16.262383 153.83832,16.756 C153.440327,17.2513191 153.200849,17.9117447 153.12074,18.7372766 L157.646953,18.7372766 C157.711722,17.862383 157.577922,17.1900426 157.244698,16.7194043 C156.913179,16.2504681 156.389908,16.0164255 155.675736,16.0164255 L155.675736,16.0164255 Z M160.202801,24.9338723 C159.715324,25.3228085 159.05399,25.6513191 158.217949,25.9194043 C157.383612,26.1857872 156.494733,26.3202553 155.553867,26.3202553 C153.591173,26.3202553 152.155159,25.7491915 151.246678,24.6070638 C150.337344,23.4640851 149.883104,21.8955745 149.883104,19.9040851 C149.883104,17.7662128 150.394444,16.1611064 151.417124,15.0921702 C152.438953,14.022383 153.874966,13.4870638 155.725166,13.4870638 C156.340478,13.4870638 156.940451,13.569617 157.525083,13.7304681 C158.108863,13.8930213 158.628726,14.1611064 159.082966,14.5321702 C159.537207,14.9066383 159.902815,15.4070638 160.178087,16.0385532 C160.45421,16.6717447 160.592272,17.4581277 160.592272,18.396 C160.592272,18.7372766 160.570966,19.1015319 160.530911,19.4913191 C160.490004,19.8802553 160.429496,20.2845106 160.348533,20.7066383 L153.047447,20.7066383 C153.096025,21.7262128 153.360217,22.4964255 153.83832,23.0147234 C154.316423,23.5321702 155.091104,23.7934468 156.161509,23.7934468 C156.827956,23.7934468 157.423667,23.6913191 157.9512,23.488766 C158.478733,23.2853617 158.880135,23.0794043 159.155406,22.8691915 L160.202801,24.9338723 Z M140.708808,13.8291915 L142.387709,13.8291915 L142.387709,11.543234 L145.5512,10.6445106 L145.5512,13.8291915 L148.520382,13.8291915 L148.520382,16.5006809 L145.5512,16.5006809 L145.5512,21.168766 C145.5512,22.009617 145.636423,22.6138723 145.80687,22.9781277 C145.977317,23.343234 146.298609,23.5253617 146.769042,23.5253617 C147.092891,23.5253617 147.372423,23.4921702 147.60764,23.4274894 C147.842856,23.3628085 148.107049,23.2657872 148.398513,23.1372766 L148.95843,25.5662128 C148.520382,25.7781277 148.009042,25.9568511 147.425262,26.1015319 C146.841482,26.2462128 146.249179,26.3202553 145.649207,26.3202553 C144.529372,26.3202553 143.706966,26.0325957 143.178581,25.4581277 C142.651049,24.8819574 142.387709,23.9389787 142.387709,22.6266383 L142.387709,16.5006809 L140.708808,16.5006809 L140.708808,13.8291915 Z M133.84577,23.5730213 C134.478128,23.5730213 134.981798,23.4325957 135.354224,23.1491915 C135.727502,22.8657872 136.003626,22.5611064 136.182595,22.2377021 L136.182595,20.6572766 C135.679777,20.6079149 135.196561,20.6011064 134.733798,20.6325957 C134.271035,20.6657872 133.861963,20.7381277 133.504877,20.8521702 C133.147791,20.9645106 132.863997,21.1279149 132.652643,21.3381277 C132.442994,21.5483404 132.336465,21.8155745 132.336465,22.1389787 C132.336465,22.5925957 132.471118,22.9466383 132.738719,23.196 C133.005468,23.4479149 133.375337,23.5730213 133.84577,23.5730213 L133.84577,23.5730213 Z M129.830898,14.5321702 C130.479447,14.2411064 131.249867,14.0104681 132.142155,13.8402553 C133.034444,13.6708936 133.966788,13.5849362 134.940891,13.5849362 C135.784602,13.5849362 136.490252,13.6870638 137.057839,13.8879149 C137.626279,14.0904681 138.077111,14.3798298 138.40863,14.7525957 C138.741001,15.1236596 138.976217,15.5704681 139.114279,16.0879149 C139.253193,16.6070638 139.322224,17.1900426 139.322224,17.8385532 C139.322224,18.5517447 139.297509,19.2674894 139.24808,19.9883404 C139.200355,20.7100426 139.171379,21.4189787 139.163709,22.1151489 C139.155186,22.8113191 139.17564,23.488766 139.223365,24.1449362 C139.271942,24.8011064 139.394664,25.4206809 139.588973,26.0028085 L137.009262,26.0028085 L136.497922,24.3270638 L136.376904,24.3270638 C136.053056,24.8291915 135.602224,25.263234 135.026114,25.6274894 C134.450004,25.9917447 133.707709,26.1738723 132.799227,26.1738723 C132.23164,26.1738723 131.7203,26.089617 131.266059,25.9194043 C130.811819,25.7491915 130.422348,25.5057872 130.097647,25.1891915 C129.773798,24.8742979 129.522389,24.5006809 129.34342,24.0717447 C129.164451,23.6428085 129.076671,23.1594043 129.076671,22.6266383 C129.076671,21.8811064 129.242004,21.2521702 129.575227,20.743234 C129.907599,20.2317447 130.386554,19.8189787 131.011241,19.502383 C131.635076,19.1874894 132.381633,18.968766 133.250059,18.8470638 C134.118485,18.7253617 135.086623,18.688766 136.15788,18.7372766 C136.27208,17.8291915 136.205605,17.1781277 135.963571,16.7806809 C135.71898,16.3840851 135.176107,16.1857872 134.331544,16.1857872 C133.700038,16.1857872 133.030183,16.2504681 132.324533,16.3806809 C131.618884,16.5091915 131.038513,16.6794043 130.585124,16.8904681 L129.830898,14.5321702 Z M126.009482,21.8955745 C126.009482,22.463234 126.081922,22.876 126.228506,23.1372766 C126.37509,23.396 126.609454,23.5253617 126.933303,23.5253617 C127.128465,23.5253617 127.319365,23.5100426 127.506004,23.4768511 C127.692643,23.4436596 127.924451,23.3721702 128.199722,23.2581277 L128.539764,25.7355745 C128.280685,25.8649362 127.883544,25.9968511 127.348341,26.1262128 C126.813138,26.2555745 126.260038,26.3202553 125.693303,26.3202553 C124.767777,26.3202553 124.062128,26.1049362 123.575502,25.6768511 C123.088877,25.2462128 122.845138,24.5389787 122.845138,23.5500426 L122.845138,8.96706383 L126.009482,8.96706383 L126.009482,21.8955745 Z M115.033564,16.1611064 C114.416547,16.1611064 113.934183,16.316 113.585619,16.623234 C113.237056,16.9313191 112.965193,17.3917447 112.770884,18.0079149 L112.770884,23.063234 C112.997578,23.2419574 113.244726,23.383234 113.512327,23.488766 C113.779929,23.5934468 114.132753,23.6462128 114.571654,23.6462128 C115.480135,23.6462128 116.161069,23.3262128 116.614458,22.6870638 C117.069551,22.0470638 117.297097,20.9900426 117.297097,19.5142979 C117.297097,18.4445106 117.118128,17.6189787 116.761894,17.036 C116.404808,16.4538723 115.828698,16.1611064 115.033564,16.1611064 L115.033564,16.1611064 Z M109.60654,13.8291915 L111.917798,13.8291915 L112.283406,15.2870638 L112.380561,15.2870638 C112.803269,14.6700426 113.301825,14.2172766 113.877083,13.9245106 C114.454045,13.6342979 115.154581,13.4870638 115.982953,13.4870638 C117.507599,13.4870638 118.652148,13.9704681 119.414045,14.9338723 C120.176795,15.8964255 120.558595,17.449617 120.558595,19.5874894 C120.558595,20.6257872 120.435874,21.5602553 120.192987,22.3951489 C119.949248,23.2300426 119.588753,23.9389787 119.109798,24.5211064 C118.631695,25.1040851 118.047063,25.5500426 117.357605,25.8581277 C116.668148,26.1662128 115.877276,26.3202553 114.984987,26.3202553 C114.482169,26.3202553 114.067984,26.2828085 113.744135,26.209617 C113.419434,26.1381277 113.094733,26.0198298 112.770884,25.8581277 L112.770884,30.8402553 L109.60654,30.8402553 L109.60654,13.8291915 Z M96.9270076,25.9806809 L96.9270076,19.368766 C96.9270076,18.2504681 96.8213306,17.4581277 96.6099766,16.9874894 C96.4003271,16.5185532 95.962279,16.2819574 95.2958323,16.2819574 C94.7444371,16.2819574 94.2987189,16.4325957 93.9569732,16.7321702 C93.616932,17.0308936 93.3578529,17.4155745 93.1788838,17.8862128 L93.1788838,25.9806809 L90.0162447,25.9806809 L90.0162447,13.8291915 L92.4732344,13.8291915 L92.8379904,15.4317447 L92.935145,15.4317447 C93.3084234,14.9134468 93.7839698,14.4606809 94.3592275,14.0717447 C94.9361897,13.6819574 95.6784852,13.4870638 96.5869663,13.4870638 C97.3650557,13.4870638 98.0016742,13.6462128 98.496822,13.9619574 C98.9911175,14.2785532 99.3771794,14.808766 99.6524509,15.5542979 C100.025729,14.9228085 100.504685,14.4198298 101.088465,14.0470638 C101.672245,13.6742979 102.378746,13.4870638 103.205413,13.4870638 C103.8872,13.4870638 104.467571,13.569617 104.945674,13.7304681 C105.42463,13.8930213 105.8141,14.1713191 106.114087,14.568766 C106.414073,14.9662128 106.637358,15.4964255 106.78309,16.1611064 C106.929674,16.8240851 107.002114,17.6674894 107.002114,18.688766 L107.002114,25.9806809 L103.838623,25.9806809 L103.838623,19.1508936 C103.838623,18.1951489 103.737207,17.4777021 103.534375,16.9994043 C103.332396,16.5219574 102.881564,16.2819574 102.183585,16.2819574 C101.615997,16.2819574 101.166018,16.436 100.832795,16.7440851 C100.500423,17.0521702 100.252423,17.4742979 100.090499,18.0079149 L100.090499,25.9806809 L96.9270076,25.9806809 Z M82.8608907,16.0164255 C82.0325196,16.0164255 81.4206158,16.262383 81.0234749,16.756 C80.6254818,17.2513191 80.3860041,17.9117447 80.3050419,18.7372766 L84.831255,18.7372766 C84.8960247,17.862383 84.7630763,17.1900426 84.4298529,16.7194043 C84.0974818,16.2504681 83.5742103,16.0164255 82.8608907,16.0164255 L82.8608907,16.0164255 Z M87.3871038,24.9338723 C86.8996261,25.3228085 86.239145,25.6513191 85.403956,25.9194043 C84.568767,26.1857872 83.6798873,26.3202553 82.7381691,26.3202553 C80.7754749,26.3202553 79.3403134,25.7491915 78.4309801,24.6070638 C77.522499,23.4640851 77.0682584,21.8955745 77.0682584,19.9040851 C77.0682584,17.7662128 77.5795986,16.1611064 78.6014268,15.0921702 C79.6241072,14.022383 81.0592687,13.4870638 82.909468,13.4870638 C83.525633,13.4870638 84.1264577,13.569617 84.7093856,13.7304681 C85.2940179,13.8930213 85.8130282,14.1611064 86.2672687,14.5321702 C86.7223615,14.9066383 87.0871175,15.4070638 87.362389,16.0385532 C87.6385127,16.6717447 87.7765746,17.4581277 87.7765746,18.396 C87.7765746,18.7372766 87.7552687,19.1015319 87.716066,19.4913191 C87.676011,19.8802553 87.6137979,20.2845106 87.5328357,20.7066383 L80.2317498,20.7066383 C80.2811794,21.7262128 80.5445196,22.4964255 81.0234749,23.0147234 C81.501578,23.5321702 82.2762584,23.7934468 83.3466639,23.7934468 C84.0122584,23.7934468 84.6079698,23.6913191 85.1363546,23.488766 C85.6638873,23.2853617 86.0652893,23.0794043 86.3405608,22.8691915 L87.3871038,24.9338723 Z M77.7355574,11.9330213 L72.7712962,11.9330213 L72.7712962,25.9806809 L69.4373581,25.9806809 L69.4373581,11.9330213 L64.4475299,11.9330213 L64.4475299,8.96706383 L77.7355574,8.96706383 L77.7355574,11.9330213 Z" id="Template" fill="#2196F3"></path>
                <path d="M247.495222,16.7926809 C246.992404,16.6148085 246.537311,16.5254468 246.131648,16.5254468 C245.56406,16.5254468 245.090219,16.675234 244.708418,16.9756596 C244.326617,17.2760851 244.071799,17.6599149 243.941408,18.1297021 L243.941408,25.980766 L240.777916,25.980766 L240.777916,13.8292766 L243.235758,13.8292766 L243.601366,15.4309787 L243.698521,15.4309787 C243.974645,14.8326809 244.347923,14.3705532 244.818356,14.0471489 C245.287937,13.7237447 245.840184,13.5603404 246.472542,13.5603404 C246.893545,13.5603404 247.373353,13.6505532 247.908555,13.8292766 L247.495222,16.7926809 Z M233.622562,16.0165106 C232.795043,16.0165106 232.18314,16.2624681 231.785146,16.7560851 C231.388005,17.2514043 231.14938,17.9109787 231.067566,18.7373617 L235.594631,18.7373617 C235.659401,17.8624681 235.524748,17.1901277 235.192377,16.7194894 C234.860005,16.2505532 234.336734,16.0165106 233.622562,16.0165106 L233.622562,16.0165106 Z M238.15048,24.9339574 C237.663002,25.3220426 237.000816,25.6514043 236.16648,25.9194894 C235.330438,26.1858723 234.442411,26.3203404 233.500693,26.3203404 C231.537999,26.3203404 230.101985,25.7492766 229.193504,24.6071489 C228.28417,23.4641702 227.830782,21.8956596 227.830782,19.9041702 C227.830782,17.7662979 228.34127,16.1611915 229.363951,15.0922553 C230.385779,14.0224681 231.821792,13.4871489 233.671992,13.4871489 C234.288157,13.4871489 234.888981,13.5697021 235.471909,13.7305532 C236.057394,13.8931064 236.575552,14.1611915 237.029792,14.5322553 C237.484033,14.9067234 237.849641,15.4071489 238.125765,16.0386383 C238.401036,16.6718298 238.539098,17.4582128 238.539098,18.3960851 C238.539098,18.7373617 238.518645,19.101617 238.477737,19.4914043 C238.437682,19.8803404 238.377174,20.2837447 238.295359,20.7067234 L230.995126,20.7067234 C231.042851,21.7262979 231.307043,22.4965106 231.785146,23.0148085 C232.264102,23.5322553 233.039634,23.7935319 234.11004,23.7935319 C234.774782,23.7935319 235.370493,23.6914043 235.898026,23.4888511 C236.425559,23.2854468 236.826961,23.0794894 237.103085,22.8692766 L238.15048,24.9339574 Z M218.655634,13.8292766 L220.334535,13.8292766 L220.334535,11.5433191 L223.498878,10.6445957 L223.498878,13.8292766 L226.46806,13.8292766 L226.46806,16.500766 L223.498878,16.500766 L223.498878,21.1688511 C223.498878,22.0097021 223.584102,22.6139574 223.754548,22.9782128 C223.924995,23.3433191 224.245435,23.5254468 224.715868,23.5254468 C225.039717,23.5254468 225.320102,23.4922553 225.555318,23.4275745 C225.791387,23.3628936 226.053875,23.2658723 226.346191,23.1373617 L226.906109,25.5662979 C226.46806,25.7782128 225.95672,25.9569362 225.37294,26.101617 C224.788308,26.2462979 224.196858,26.3203404 223.596033,26.3203404 C222.47705,26.3203404 221.653792,26.0326809 221.12626,25.4582128 C220.598727,24.8820426 220.334535,23.9382128 220.334535,22.6258723 L220.334535,16.500766 L218.655634,16.500766 L218.655634,13.8292766 Z M214.689339,22.6258723 C214.689339,22.3024681 214.551277,22.0428936 214.275153,21.8488511 C213.999882,21.6531064 213.658988,21.4760851 213.253325,21.3126809 C212.847662,21.1509787 212.401091,20.9867234 211.914466,20.8148085 C211.426988,20.6445957 210.982122,20.4105532 210.576459,20.1109787 C210.170796,19.8105532 209.829902,19.4309787 209.553779,18.9688511 C209.278507,18.5067234 209.140445,17.9109787 209.140445,17.181617 C209.140445,15.9833191 209.497531,15.0675745 210.210851,14.435234 C210.925023,13.8037447 211.955373,13.4871489 213.301902,13.4871489 C214.226576,13.4871489 215.062617,13.5850213 215.809174,13.7790638 C216.554878,13.9731064 217.139511,14.1926809 217.560514,14.435234 L216.854865,16.7194894 C216.481586,16.5739574 216.012005,16.420766 215.443566,16.2573617 C214.875978,16.0965106 214.299016,16.0165106 213.716088,16.0165106 C212.77437,16.0165106 212.303937,16.380766 212.303937,17.1084255 C212.303937,17.4003404 212.441999,17.634383 212.718122,17.8131064 C212.994246,17.9918298 213.334287,18.1577872 213.739951,18.3118298 C214.145614,18.4667234 214.592184,18.6326809 215.077957,18.8105532 C215.565435,18.9875745 216.012005,19.2190638 216.417669,19.5024681 C216.82248,19.7858723 217.162521,20.154383 217.438645,20.608 C217.714768,21.0633191 217.85283,21.6462979 217.85283,22.3577872 C217.85283,23.5901277 217.459098,24.5577872 216.671634,25.2633191 C215.885023,25.9662979 214.704679,26.3203404 213.131456,26.3203404 C212.271552,26.3203404 211.464487,26.2097021 210.71026,25.9918298 C209.956033,25.7722553 209.343277,25.5186383 208.871992,25.2267234 L209.74894,22.8692766 C210.121366,23.0794894 210.616514,23.2854468 211.233531,23.4888511 C211.849696,23.6914043 212.482906,23.7935319 213.131456,23.7935319 C213.601889,23.7935319 213.979428,23.7041702 214.26237,23.5254468 C214.547016,23.3467234 214.689339,23.048 214.689339,22.6258723 L214.689339,22.6258723 Z M203.834438,25.980766 L203.834438,19.0769362 C203.834438,18.0897021 203.692115,17.3765106 203.408322,16.9382128 C203.124528,16.500766 202.642164,16.2820426 201.961229,16.2820426 C201.360404,16.2820426 200.853325,16.4565106 200.439992,16.8054468 C200.026658,17.1535319 199.730933,17.5875745 199.551964,18.1058723 L199.551964,25.980766 L196.387621,25.980766 L196.387621,13.8292766 L198.894892,13.8292766 L199.259648,15.4309787 L199.357655,15.4309787 C199.730933,14.9135319 200.224377,14.460766 200.841394,14.0718298 C201.458411,13.6820426 202.252693,13.4871489 203.226796,13.4871489 C203.826768,13.4871489 204.361971,13.5697021 204.832404,13.7305532 C205.303689,13.8931064 205.70083,14.1611915 206.025531,14.5322553 C206.34938,14.9067234 206.593119,15.4122553 206.755043,16.0514043 C206.91782,16.6914043 206.998782,17.4828936 206.998782,18.420766 L206.998782,25.980766 L203.834438,25.980766 Z M185.995483,19.9041702 C185.995483,20.4377872 186.04406,20.9331064 186.142067,21.3867234 C186.239222,21.8403404 186.385806,22.2369362 186.580115,22.5773617 C186.775277,22.9177872 187.030095,23.180766 187.346274,23.3662979 C187.663304,23.5535319 188.040844,23.6462979 188.478892,23.6462979 C189.306411,23.6462979 189.922576,23.3467234 190.327387,22.7467234 C190.73305,22.1484255 190.935882,21.1994894 190.935882,19.9041702 C190.935882,18.7867234 190.749243,17.8828936 190.375964,17.194383 C190.003538,16.5058723 189.371181,16.1611915 188.478892,16.1611915 C187.699951,16.1611915 187.090603,16.4539574 186.652555,17.0360851 C186.214507,17.6190638 185.995483,18.5748085 185.995483,19.9041702 L185.995483,19.9041702 Z M182.734837,19.9041702 C182.734837,17.8462979 183.237655,16.2624681 184.244143,15.1535319 C185.249779,14.0420426 186.66193,13.4871489 188.478892,13.4871489 C189.452143,13.4871489 190.295002,13.6411915 191.009174,13.9492766 C191.723346,14.2565106 192.315648,14.6914043 192.786081,15.2488511 C193.256514,15.8097021 193.609339,16.4854468 193.844555,17.2794894 C194.079772,18.0726809 194.198232,18.9467234 194.198232,19.9041702 C194.198232,21.9603404 193.697971,23.5450213 192.700858,24.6539574 C191.703744,25.7654468 190.295002,26.3203404 188.478892,26.3203404 C187.505641,26.3203404 186.66193,26.1662979 185.947758,25.8582128 C185.233586,25.5501277 184.637875,25.1160851 184.158067,24.5577872 C183.679964,24.0003404 183.322878,23.3228936 183.087662,22.528 C182.852445,21.7356596 182.734837,20.8599149 182.734837,19.9041702 L182.734837,19.9041702 Z M177.138219,17.1569362 L177.502122,13.7790638 L177.357243,13.7790638 L176.309847,16.500766 L172.684445,22.8445957 L171.613188,22.8445957 L167.791772,16.4786383 L166.721366,13.7790638 L166.599497,13.7790638 L167.086975,17.1322553 L167.086975,25.980766 L163.922631,25.980766 L163.922631,8.96714894 L166.965105,8.96714894 L171.516033,16.7441702 L172.317985,18.688 L172.415992,18.688 L173.146356,16.6956596 L177.454397,8.96714894 L180.472157,8.96714894 L180.472157,25.980766 L177.138219,25.980766 L177.138219,17.1569362 Z" id="Monster" fill="#D84314"></path>
                <g id="Mark" fill="#2196F3">
                    <path d="M26.00008,24.3 C21.59748,24.3 17.99758,20.8717 17.71938,16.5394 C18.63418,16.7421 19.56118,16.9119 20.49938,17.0476 C20.99008,19.6394 23.26548,21.6 26.00008,21.6 C26.57108,21.6 27.12198,21.514 27.64098,21.3552 L27.43608,17.6687 L30.25578,19.6378 C30.87718,18.9115 31.31578,18.0247 31.50078,17.0476 C32.43888,16.9119 33.36598,16.7422 34.28078,16.5394 C34.00258,20.8717 30.40268,24.3 26.00008,24.3 L26.00008,24.3 L26.00008,24.3 Z M36.99998,13 L36.99928,13 C36.87278,13.0413 36.74588,13.0818 36.61878,13.1217 C35.76338,13.3904 34.89418,13.6277 34.01208,13.8318 C33.13678,14.0344 32.24888,14.2043 31.34998,14.3406 C29.60518,14.6051 27.81868,14.7424 26.00008,14.7424 C24.18148,14.7424 22.39498,14.6051 20.65018,14.3406 C19.75128,14.2043 18.86338,14.0344 17.98808,13.8318 C17.10598,13.6277 16.23678,13.3904 15.38138,13.1217 C15.25428,13.0818 15.12738,13.0413 15.00098,13 L14.99998,13 C14.99998,13 15.00008,15.9433 15.00008,16 C15.00008,22.0751 19.92498,27 26.00008,27 C32.07308,27 36.99658,22.0785 36.99998,16.0063 L36.99998,13 L36.99998,13 Z" id="Fill-1"></path>
                    <path d="M44.48995,29.57788 L39.07535,25.79778 L39.50555,33.52148 C35.56925,35.91878 30.94595,37.29998 26.00005,37.29998 C21.05505,37.29998 16.43255,35.91928 12.49665,33.52288 L12.92695,25.79608 L7.51005,29.57788 C5.64565,27.69218 4.06665,25.52358 2.84565,23.14098 C3.14425,21.94598 3.53175,20.78628 4.00295,19.67028 C4.44255,18.62918 4.95465,17.62638 5.53155,16.66688 C5.07865,15.63948 4.70095,14.57168 4.40515,13.47028 C3.90735,11.61648 3.64035,9.66828 3.64035,7.65748 C3.64035,6.58558 3.71745,5.53198 3.86335,4.50038 L11.60715,9.90788 C12.37655,9.32528 13.18225,8.78818 14.02055,8.30078 C17.54165,6.25338 21.63355,5.07988 26.00005,5.07988 C30.36645,5.07988 34.45845,6.25338 37.97945,8.30078 C38.81775,8.78818 39.62345,9.32528 40.39295,9.90788 L48.13665,4.50038 C48.28245,5.53198 48.35965,6.58558 48.35965,7.65748 C48.35965,9.66828 48.09255,11.61648 47.59485,13.47018 C47.29905,14.57168 46.92135,15.63948 46.46845,16.66688 C47.04535,17.62638 47.55745,18.62918 47.99705,19.67038 C48.46825,20.78628 48.85575,21.94598 49.15435,23.14098 C47.93335,25.52358 46.35435,27.69218 44.48995,29.57788 M50.75225,19.27838 C50.37575,18.31538 49.94405,17.38028 49.46225,16.47578 C50.49385,13.73258 51.05975,10.76128 51.05975,7.65748 C51.05975,6.01428 50.89985,4.40868 50.59785,2.85378 C50.59375,2.83258 50.58985,2.81138 50.58565,2.79018 C50.39855,1.83968 50.15765,0.90858 49.86635,-2e-05 L40.39425,6.61448 C36.24645,3.93558 31.30515,2.37988 26.00005,2.37988 C20.69495,2.37988 15.75355,3.93558 11.60575,6.61448 L2.13365,-2e-05 C1.84235,0.90858 1.60145,1.83968 1.41425,2.79018 C1.41015,2.81138 1.40625,2.83268 1.40205,2.85388 C1.10015,4.40878 0.94025,6.01428 0.94025,7.65748 C0.94025,10.76128 1.50605,13.73258 2.53775,16.47578 C2.05595,17.38028 1.62425,18.31538 1.24775,19.27838 C0.72165,20.62448 0.30255,22.02408 5.00000001e-05,23.46668 C0.63175,24.81428 1.36355,26.10558 2.18885,27.32888 C3.10575,28.68818 4.13635,29.96438 5.26635,31.14468 C5.90175,31.80828 6.56865,32.44138 7.26475,33.04168 L9.92195,31.18608 L9.71365,34.93268 C10.55435,35.51308 11.42645,36.05138 12.32885,36.54108 C16.39345,38.74698 21.05045,39.99998 26.00005,39.99998 C30.95055,39.99998 35.60835,38.74658 39.67335,36.53998 C40.57575,36.05008 41.44785,35.51168 42.28855,34.93118 L42.08045,31.18778 L44.73525,33.04168 C45.43135,32.44138 46.09825,31.80828 46.73365,31.14468 C47.86365,29.96448 48.89425,28.68828 49.81115,27.32898 C50.63645,26.10558 51.36825,24.81428 52.00005,23.46668 C51.69745,22.02408 51.27835,20.62448 50.75225,19.27838" id="Fill-3"></path>
                </g>
            </g>
        </g>
    </g>
</svg>