<?xml version="1.0" encoding="UTF-8"?> <!-- Generator: Adobe Illustrator 23.0.1, SVG Export Plug-In . SVG Version: 6.00 Build 0) --> <svg xmlns="http://www.w3.org/2000/svg" xmlns:xlink="http://www.w3.org/1999/xlink" id="Layer_1" x="0px" y="0px" width="207.3px" height="37.3px" viewBox="0 0 207.3 37.3" style="enable-background:new 0 0 207.3 37.3;" xml:space="preserve"> <style type="text/css"> .st0{fill:#1B75BB;} .st1{fill:#404041;} </style> <g> <path class="st0" d="M44.3,19.3c0.2-0.6,0.3-1.3,0.3-2c0-4.6-3.7-8.3-8.3-8.3c-1,0-2,0.2-2.9,0.5C31.4,5.8,27.5,3.3,23,3.3 c-6.4,0-11.6,5.2-11.6,11.6c0,0.7,0.1,1.5,0.2,2.2c-3.2,0.5-5.6,3.2-5.6,6.5c0,2.4,1.2,4.4,3.1,5.6c1.6-0.9,3.5-1.6,5.6-2.2 c0,0-2.4-8.2,0.4-8.8c3.4-0.6,3.6,0.3,10.5-0.4c7.4-0.8,13.8,0.4,13.8,0.4c1.3,0,1.2,2.7,1,4.7c-0.2,2-0.9,3.8-0.9,3.8 c2.6,0.7,4.9,1.6,6.8,2.7c1.6-1,2.6-2.7,2.6-4.6C49.1,21.9,47,19.6,44.3,19.3z"></path> <path class="st0" d="M27.6,31.4c9.6,0,18.2,1.3,23.8,4.8c-3.6-4.8-12.9-8.2-23.8-8.2S7.4,31.3,3.8,36.1C9.4,32.7,18,31.4,27.6,31.4 z"></path> </g> <path class="st1" d="M162.7,25.7c-0.6,0.9-1.4,1.5-2.4,2c-2,0.8-3.8,0.4-5.1-1.5l10.9-4.5c-0.1-0.4-0.3-0.8-0.4-1.2 c-1.9-4.4-5.9-7.5-11.1-5.3c-4.5,1.9-6.2,6.9-4.3,11.4l0,0.1c2,4.8,6.8,6.6,11.5,4.7c1.6-0.7,2.8-1.6,3.7-2.7L162.7,25.7z M156,18.7 c1.9-0.8,3.6,0.1,4.7,2l-6.7,2.8C153.5,21.3,154.1,19.5,156,18.7z"></path> <path class="st1" d="M51.8,20.8L51.8,20.8c0-6.2,4.6-11.3,11-11.3c4,0,6.3,1.4,8.5,3.5l-1.7,1.8c-1.8-1.7-3.9-3-6.9-3 c-4.8,0-8.4,3.9-8.4,8.9v0.1c0,5.1,3.7,9,8.4,9c3,0,4.9-1.1,7-3.1l1.6,1.6c-2.3,2.3-4.8,3.8-8.7,3.8C56.4,32,51.8,27,51.8,20.8z"></path> <path class="st1" d="M73.4,8.9h2.4v22.8h-2.4V8.9z"></path> <path class="st1" d="M77.6,23.6L77.6,23.6c0-4.6,3.6-8.5,8.4-8.5c4.8,0,8.4,3.8,8.4,8.4v0.1c0,4.6-3.6,8.4-8.4,8.4 C81.1,32,77.6,28.2,77.6,23.6z M91.9,23.6L91.9,23.6c0-3.5-2.6-6.3-6-6.3c-3.5,0-5.9,2.8-5.9,6.2v0.1c0,3.5,2.6,6.3,5.9,6.3 C89.5,29.8,91.9,27,91.9,23.6z"></path> <path class="st1" d="M96.3,25.5v-10h2.4v9.4c0,3,1.6,4.9,4.5,4.9c2.7,0,4.8-2,4.8-5.1v-9.2h2.4v16.1H108v-2.8 c-1.1,1.7-2.7,3.1-5.5,3.1C98.5,32,96.3,29.3,96.3,25.5z"></path> <path class="st1" d="M112,23.6L112,23.6c0-5.3,3.8-8.4,7.7-8.4c3,0,4.9,1.6,6.2,3.4V8.9h2.4v22.8h-2.4v-3.2 c-1.3,1.9-3.2,3.6-6.2,3.6C115.8,32,112,28.9,112,23.6z M125.9,23.6L125.9,23.6c0-3.8-2.8-6.3-5.8-6.3c-3.1,0-5.7,2.3-5.7,6.2v0.1 c0,3.8,2.6,6.2,5.7,6.2C123.1,29.8,125.9,27.3,125.9,23.6z"></path> <path class="st1" d="M135.6,29.4v2.2h-4.7V8.9h4.7v8.4c1.1-1.6,2.7-2.7,5.2-2.7c3.9,0,7.6,3.1,7.6,8.6v0.1c0,5.6-3.6,8.6-7.6,8.6 C138.3,31.9,136.7,30.8,135.6,29.4z M143.7,23.3L143.7,23.3c0-2.8-1.9-4.7-4.1-4.7s-4.1,1.8-4.1,4.6v0.1c0,2.8,1.8,4.6,4.1,4.6 C141.8,27.9,143.7,26.1,143.7,23.3z"></path> <path class="st1" d="M166.9,23.3L166.9,23.3c0-5.6,3.6-8.7,7.6-8.7c2.5,0,4.1,1.1,5.2,2.5V8.9h4.7v22.8h-4.7v-2.4 c-1.1,1.6-2.7,2.7-5.2,2.7C170.6,31.9,166.9,28.9,166.9,23.3z M179.8,23.3L179.8,23.3c0-2.8-1.8-4.7-4.1-4.7s-4.1,1.8-4.1,4.6v0.1 c0,2.8,1.9,4.6,4.1,4.6C177.9,27.9,179.8,26.1,179.8,23.3z"></path> <path class="st1" d="M186,29.4l2-3.1c1.8,1.3,3.7,2,5.3,2c1.4,0,2-0.5,2-1.2V27c0-1-1.6-1.4-3.5-1.9c-2.3-0.7-5-1.8-5-5v-0.1 c0-3.4,2.7-5.3,6.1-5.3c2.1,0,4.4,0.7,6.2,1.9l-1.8,3.3c-1.6-1-3.3-1.6-4.5-1.6c-1.1,0-1.7,0.5-1.7,1.1v0.1c0,0.9,1.6,1.4,3.4,2 c2.3,0.8,5.1,1.9,5.1,5v0.1c0,3.7-2.8,5.4-6.4,5.4C190.9,31.9,188.2,31.1,186,29.4z"></path> <g> <path class="st1" d="M201.2,30.4L201.2,30.4c0-0.9,0.7-1.7,1.7-1.7c0.9,0,1.7,0.8,1.7,1.7v0c0,0.9-0.7,1.7-1.7,1.7 C201.9,32.1,201.2,31.4,201.2,30.4z M204.3,30.4L204.3,30.4c0-0.8-0.6-1.5-1.5-1.5c-0.8,0-1.5,0.7-1.5,1.5v0c0,0.8,0.6,1.5,1.5,1.5 C203.7,31.9,204.3,31.3,204.3,30.4z M202.1,29.5h0.8c0.2,0,0.4,0.1,0.5,0.2c0.1,0.1,0.2,0.2,0.2,0.4v0c0,0.3-0.2,0.5-0.4,0.5 l0.4,0.6h-0.5l-0.4-0.6h0h-0.3v0.6h-0.4L202.1,29.5L202.1,29.5z M202.9,30.4c0.2,0,0.3-0.1,0.3-0.3v0c0-0.2-0.1-0.3-0.3-0.3h-0.4 v0.5C202.5,30.4,202.9,30.4,202.9,30.4z"></path> </g> </svg> 