<svg class="black-logo" xmlns="http://www.w3.org/2000/svg" xmlns:xlink="http://www.w3.org/1999/xlink" version="1.1" id="Layer_1" x="0px" y="0px" viewBox="0 0 375.5 124.6" style="enable-background:new 0 0 375.5 124.6;" xml:space="preserve">
<style type="text/css">
	.st0-white{fill:#231F20;}
    .st1-white{fill-rule:evenodd;clip-rule:evenodd;fill:#3394D1;}
    .st2-white{fill:#FFFFFF;}
</style>
    <path class="st0-white" d="M73.9,28.7v30.4c0,7.2-1.9,12.8-5.6,17c-3.8,4.2-8.8,6.2-15.1,6.2c-3.3,0-6.3-0.7-9.1-2.1  c-2.8-1.4-5.1-3.4-7.1-6c-2.1,2.7-4.5,4.7-7.2,6.1c-2.7,1.4-5.7,2-8.9,2c-6.3,0-11.4-2.1-15.2-6.3C1.9,71.9,0,66.2,0,59.1V28.7h9.4  v32.1c0,3.7,1,6.7,3.1,9c2.1,2.3,4.9,3.4,8.3,3.4c3.4,0,6.2-1.1,8.3-3.4s3.2-5.3,3.2-9V28.7h9.3v32.1c0,3.7,1,6.7,3.1,9  c2.1,2.3,4.9,3.4,8.3,3.4c3.4,0,6.1-1.1,8.2-3.4c2.1-2.3,3.2-5.3,3.2-9V28.7H73.9z"></path>
    <path class="st0-white" d="M119.8,81.3V55.1c0-5.5-1.6-10-4.7-13.4c-3.1-3.4-7.2-5.1-12.1-5.1c-4.9,0-9,1.7-12.2,5.1  c-3.2,3.4-4.8,7.7-4.8,13.1c0,5.4,1.6,9.9,4.9,13.4c3.3,3.5,7.4,5.2,12.5,5.2c2.3,0,4.5-0.4,6.7-1.2c2.2-0.8,4.3-2,6.5-3.7v10.1  c-2.1,1.2-4.4,2.1-6.8,2.7c-2.4,0.6-4.9,0.9-7.5,0.9c-2.5,0-5-0.4-7.5-1.2c-2.5-0.8-4.7-1.9-6.7-3.2c-3.8-2.6-6.7-5.9-8.7-9.8  c-2-3.9-3-8.3-3-13.1c0-7.9,2.5-14.4,7.5-19.5c5-5.1,11.3-7.7,18.9-7.7c5,0,9.7,1.3,13.9,3.8c4.2,2.5,7.4,6,9.7,10.5  c1,2,1.8,4.2,2.2,6.6c0.4,2.4,0.7,5.9,0.7,10.7v22.1H119.8z"></path>
    <rect x="134.8" y="4.5" class="st0" width="9.4" height="76.9"></rect>
    <path class="st0-white" d="M150.7,81.3V4.5h9.4v43.3h4.2c2.7,0,4.9-0.6,6.6-1.7c1.7-1.1,3.5-3.3,5.5-6.6l6.7-10.9h11l-7.7,12.5  c-1.4,2.3-2.7,4.1-4,5.6c-1.3,1.5-2.6,2.5-3.8,3.1c4.3,0.8,7.5,2.6,9.6,5.3c2.1,2.7,3.1,6.6,3.1,11.6v14.5h-9.5V68  c0-3.8-0.8-6.6-2.5-8.3c-1.7-1.8-4.3-2.7-7.9-2.7h-11.2v24.3H150.7z"></path>
    <path class="st1-white" d="M339.6,0H233c-19.8,0-35.9,16.1-35.9,35.9v34.6c0,19.8,16.1,35.9,35.9,35.9h27.6l25.3,18l25.3-18h28.4  c19.8,0,35.9-16.1,35.9-35.9V35.9C375.5,16.1,359.5,0,339.6,0"></path>
    <path class="st2-white" d="M221.5,80.2V49.7c0-7.2,1.9-12.8,5.6-17c3.8-4.2,8.8-6.2,15.2-6.2c3.3,0,6.3,0.7,9,2.1c2.8,1.4,5.1,3.4,7.1,6  c2.1-2.7,4.5-4.7,7.2-6.1c2.7-1.4,5.7-2,9-2c6.3,0,11.3,2.1,15.1,6.3c3.8,4.2,5.7,9.8,5.7,16.9v30.4h-9.3V48c0-3.7-1.1-6.7-3.2-8.9  c-2.1-2.3-4.9-3.4-8.3-3.4c-3.4,0-6.2,1.1-8.3,3.4c-2.1,2.3-3.2,5.2-3.2,8.9v32.2h-9.3V48c0-3.7-1.1-6.7-3.2-8.9  c-2.1-2.3-4.9-3.4-8.3-3.4c-3.4,0-6.2,1.1-8.3,3.4c-2.1,2.3-3.1,5.2-3.1,8.9v32.2H221.5z"></path>
    <path class="st2-white" d="M351.1,56.9c-1.3,7.5-4.4,13.5-9.1,17.8c-4.8,4.4-10.6,6.6-17.4,6.6c-2.3,0-4.6-0.3-6.9-0.9  c-2.3-0.6-4.4-1.5-6.4-2.8c-4.2-2.6-7.5-5.9-9.8-10.1c-2.3-4.2-3.5-8.7-3.5-13.7c0-3.7,0.7-7.1,2-10.4c1.3-3.3,3.3-6.3,5.8-8.9  c2.5-2.6,5.4-4.6,8.7-6c3.2-1.4,6.6-2,10.2-2c5.3,0,10.1,1.4,14.3,4.2c4.2,2.8,7.6,6.9,10.2,12.3L314.7,62l-4-7.1l25.6-14.3  c-1.6-1.8-3.3-3.1-5.3-4c-2-0.9-4.1-1.3-6.4-1.3c-4.7,0-8.7,1.8-11.9,5.3c-3.2,3.5-4.9,7.9-4.9,13.1c0,5.2,1.6,9.5,4.9,13  c3.3,3.5,7.2,5.3,11.9,5.3c4.5,0,8.2-1.5,11.2-4.4c3-3,4.9-7,5.7-12.2L351.1,56.9z"></path>
</svg>